<mxfile host="app.diagrams.net" modified="2023-05-04T14:27:34.944Z" agent="Mozilla/5.0 (Windows NT 10.0; Win64; x64) AppleWebKit/537.36 (KHTML, like Gecko) Chrome/112.0.0.0 Safari/537.36" version="21.2.8" etag="f55vWn0zaQzw_Ljmx4Vu" type="github">
  <diagram name="Page-1" id="qGIeqLOewE4ViNR96cKk">
    <mxGraphModel>
      <root>
        <mxCell id="0" />
        <mxCell id="1" parent="0" />
      </root>
    </mxGraphModel>
  </diagram>
</mxfile>
